<svg aria-hidden="true" style="position: absolute; width: 0; height: 0; overflow: hidden;" version="1.1" xmlns="http://www.w3.org/2000/svg" xmlns:xlink="http://www.w3.org/1999/xlink">
<defs>
<symbol id="icon-group-4" viewBox="0 0 32 41">
<path fill="#8e8f99" style="fill: var(--color1, #8e8f99)" d="M13.493 2.314h-0.108c-0.165-0.010-0.331-0.014-0.497-0.018v0h-0.359c-0.313 0-0.632 0.008-0.949 0.024-0.024-0.002-0.048-0.002-0.072 0-2.873 0.163-5.689 0.881-8.292 2.115l-0.341 0.164v17.457l0.798-0.271c0.7-0.241 1.446-0.457 2.218-0.658 2.087-0.536 4.229-0.82 6.383-0.848v2.294c-0.285 0.002-0.562 0.010-0.84 0.024h-0.066c-1.657 0.091-3.302 0.343-4.911 0.754-2.037 0.51-4.003 1.276-5.85 2.28v-22.39c1.918-1.119 3.985-1.959 6.137-2.496 1.89-0.488 3.833-0.739 5.784-0.746h0.337c0.403 0.010 0.796 0.028 1.165 0.056 0.972 0.068 1.937 0.222 2.882 0.459v2.258c-0.918-0.214-1.852-0.355-2.792-0.421-0.019-0.002-0.038-0.003-0.057-0.005-0.195-0.017-0.389-0.033-0.571-0.033zM17.467 4.621c0.501 0.038 1.019 0.056 1.544 0.056 2.051-0.007 4.094-0.269 6.081-0.78 2.037-0.512 4.001-1.279 5.848-2.282v21.991c-1.919 1.118-3.986 1.959-6.139 2.496-1.89 0.486-3.833 0.736-5.784 0.744-1.478 0.012-2.953-0.162-4.388-0.517v-22.133c0.339 0.078 0.688 0.15 1.043 0.211 0.582 0.098 1.197 0.17 1.795 0.215zM28.658 4.792l-0.798 0.269c-0.734 0.247-1.474 0.467-2.218 0.664-2.166 0.557-4.392 0.842-6.628 0.85-0.521 0-0.999-0.014-1.462-0.044l-0.636-0.042v17.959l0.546 0.048c0.507 0.044 1.029 0.066 1.556 0.066 1.761-0.007 3.514-0.234 5.22-0.676 1.404-0.352 2.771-0.843 4.079-1.466l0.341-0.164v-17.463z"></path>
<path fill="#8e8f99" style="fill: var(--color1, #8e8f99)" d="M2.158 33.283c-0.115-0.119-0.253-0.212-0.406-0.274s-0.317-0.091-0.482-0.085c-0.176-0.002-0.35 0.030-0.513 0.096-0.149 0.059-0.285 0.149-0.399 0.263-0.113 0.114-0.2 0.251-0.257 0.401-0.063 0.157-0.094 0.326-0.092 0.495v2.991c-0.007 0.211 0.033 0.42 0.118 0.614 0.071 0.153 0.173 0.29 0.299 0.401 0.12 0.101 0.26 0.173 0.411 0.213 0.145 0.041 0.296 0.062 0.447 0.062 0.167 0.002 0.331-0.034 0.483-0.104 0.15-0.065 0.285-0.159 0.399-0.277 0.111-0.116 0.2-0.252 0.261-0.401 0.064-0.151 0.096-0.313 0.096-0.477v-0.335h-0.782v0.267c0.002 0.091-0.013 0.182-0.046 0.267-0.025 0.064-0.064 0.121-0.114 0.168-0.048 0.039-0.104 0.068-0.164 0.086-0.053 0.018-0.108 0.027-0.164 0.028-0.070 0.008-0.14-0.002-0.205-0.031s-0.12-0.073-0.162-0.13c-0.074-0.12-0.11-0.26-0.104-0.401v-2.789c-0.005-0.155 0.028-0.308 0.096-0.447 0.041-0.063 0.098-0.114 0.166-0.145s0.143-0.044 0.217-0.035c0.067-0.002 0.134 0.012 0.195 0.041s0.114 0.073 0.154 0.127c0.087 0.115 0.133 0.256 0.13 0.401v0.259h0.774v-0.305c0.002-0.179-0.031-0.357-0.096-0.523-0.058-0.157-0.147-0.3-0.261-0.421v0z"></path>
<path fill="#8e8f99" style="fill: var(--color1, #8e8f99)" d="M6.804 33.249c-0.249-0.211-0.564-0.327-0.89-0.329-0.159 0.001-0.317 0.029-0.467 0.084-0.152 0.054-0.292 0.137-0.413 0.245-0.13 0.116-0.233 0.259-0.303 0.419-0.079 0.183-0.118 0.38-0.114 0.579v2.869c-0.005 0.202 0.033 0.402 0.114 0.587 0.071 0.154 0.174 0.291 0.303 0.401 0.12 0.111 0.26 0.197 0.413 0.253 0.15 0.055 0.308 0.083 0.467 0.084 0.159-0 0.317-0.029 0.467-0.084 0.156-0.057 0.299-0.142 0.423-0.253 0.125-0.112 0.225-0.248 0.295-0.401 0.080-0.185 0.119-0.386 0.114-0.587v-2.869c0.004-0.199-0.035-0.397-0.114-0.579-0.070-0.158-0.17-0.301-0.295-0.419v0zM6.439 37.116c0.007 0.076-0.004 0.153-0.031 0.225s-0.070 0.137-0.125 0.19c-0.103 0.087-0.234 0.134-0.368 0.134s-0.265-0.047-0.368-0.134c-0.055-0.053-0.098-0.118-0.125-0.19s-0.037-0.149-0.031-0.225v-2.869c-0.007-0.076 0.004-0.153 0.031-0.225s0.070-0.137 0.125-0.19c0.103-0.087 0.234-0.134 0.368-0.134s0.265 0.047 0.368 0.134c0.055 0.053 0.098 0.118 0.125 0.19s0.037 0.149 0.031 0.225v2.869z"></path>
<path fill="#8e8f99" style="fill: var(--color1, #8e8f99)" d="M12.905 38.398v-5.431h-0.752l-0.987 2.875h-0.014l-0.995-2.875h-0.744v5.431h0.776v-3.304h0.014l0.76 2.336h0.387l0.766-2.336h0.014v3.304h0.776z"></path>
<path fill="#8e8f99" style="fill: var(--color1, #8e8f99)" d="M17.313 33.347c-0.12-0.134-0.27-0.236-0.439-0.297-0.182-0.059-0.372-0.088-0.562-0.084h-1.153v5.432h0.774v-2.121h0.399c0.242 0.011 0.482-0.040 0.698-0.148 0.176-0.098 0.323-0.241 0.425-0.415 0.089-0.144 0.15-0.305 0.177-0.473 0.030-0.204 0.044-0.411 0.042-0.618 0.008-0.261-0.018-0.522-0.076-0.776-0.052-0.188-0.15-0.36-0.285-0.499v0zM16.914 35.003c-0.003 0.098-0.028 0.195-0.072 0.283-0.044 0.083-0.114 0.15-0.199 0.19-0.115 0.051-0.24 0.075-0.365 0.068h-0.353v-1.847h0.399c0.12-0.006 0.24 0.017 0.349 0.068 0.080 0.046 0.144 0.116 0.181 0.201 0.042 0.095 0.065 0.198 0.068 0.303 0 0.114 0 0.235 0 0.361s0.008 0.257 0 0.373h-0.008z"></path>
<path fill="#8e8f99" style="fill: var(--color1, #8e8f99)" d="M20.979 32.966h-0.634l-1.197 5.431h0.774l0.227-1.167h1.055l0.227 1.167h0.774l-1.227-5.431zM20.265 36.491l0.381-1.969h0.014l0.379 1.969h-0.774z"></path>
<path fill="#8e8f99" style="fill: var(--color1, #8e8f99)" d="M25.98 36.238h-0.014l-1.169-3.272h-0.744v5.431h0.774v-3.266h0.016l1.183 3.266h0.728v-5.431h-0.774v3.272z"></path>
<path fill="#8e8f99" style="fill: var(--color1, #8e8f99)" d="M30.709 32.966l-0.622 2.159h-0.016l-0.622-2.159h-0.82l1.063 3.136v2.296h0.774v-2.296l1.063-3.136h-0.82z"></path>
<path fill="#8e8f99" style="fill: var(--color1, #8e8f99)" d="M0 39.931h0.373v1.047h0.253v-1.047h0.371v-0.215h-0.997v0.215z"></path>
<path fill="#8e8f99" style="fill: var(--color1, #8e8f99)" d="M3.135 39.717l-0.489 1.261h0.269l0.104-0.287h0.503l0.108 0.287h0.275l-0.501-1.261h-0.269zM3.096 40.479l0.172-0.467 0.172 0.467h-0.343z"></path>
<path fill="#8e8f99" style="fill: var(--color1, #8e8f99)" d="M6.235 40.513h0.291v0.162c-0.085 0.068-0.19 0.106-0.299 0.106-0.051 0.003-0.102-0.007-0.148-0.028s-0.087-0.053-0.119-0.093c-0.067-0.096-0.1-0.212-0.094-0.329 0-0.281 0.122-0.421 0.363-0.421 0.064-0.006 0.127 0.010 0.18 0.047s0.090 0.091 0.106 0.153l0.249-0.048c-0.054-0.247-0.231-0.371-0.535-0.371-0.162-0.004-0.32 0.054-0.441 0.162-0.064 0.063-0.113 0.139-0.144 0.222s-0.044 0.173-0.037 0.263c-0.007 0.173 0.050 0.342 0.162 0.473 0.062 0.064 0.137 0.113 0.219 0.145s0.171 0.045 0.259 0.039c0.197 0.006 0.389-0.066 0.535-0.201v-0.497h-0.547v0.212z"></path>
<path fill="#8e8f99" style="fill: var(--color1, #8e8f99)" d="M9.401 39.717h-0.255v1.261h0.884v-0.215h-0.628v-1.047z"></path>
<path fill="#8e8f99" style="fill: var(--color1, #8e8f99)" d="M12.077 39.717h-0.255v1.261h0.255v-1.261z"></path>
<path fill="#8e8f99" style="fill: var(--color1, #8e8f99)" d="M14.694 40.559l-0.517-0.842h-0.247v1.261h0.237v-0.824l0.507 0.824h0.253v-1.261h-0.233v0.842z"></path>
<path fill="#8e8f99" style="fill: var(--color1, #8e8f99)" d="M17.060 40.422h0.628v-0.215h-0.628v-0.277h0.676v-0.215h-0.931v1.261h0.957v-0.215h-0.702v-0.341z"></path>
<path fill="#8e8f99" style="fill: var(--color1, #8e8f99)" d="M22.796 40.214h-0.497v-0.497h-0.253v1.261h0.253v-0.551h0.497v0.551h0.253v-1.261h-0.253v0.497z"></path>
<path fill="#8e8f99" style="fill: var(--color1, #8e8f99)" d="M25.176 40.422h0.63v-0.215h-0.63v-0.277h0.678v-0.215h-0.931v1.261h0.955v-0.215h-0.702v-0.341z"></path>
<path fill="#8e8f99" style="fill: var(--color1, #8e8f99)" d="M28.403 40.423c0.219-0.034 0.331-0.15 0.331-0.351 0.006-0.054-0.002-0.108-0.024-0.157s-0.056-0.092-0.1-0.123c-0.114-0.057-0.242-0.083-0.369-0.074h-0.534v1.261h0.253v-0.527h0.050c0.054-0.003 0.108 0.006 0.158 0.028 0.037 0.023 0.068 0.054 0.090 0.092l0.275 0.401h0.303l-0.154-0.247c-0.068-0.122-0.164-0.225-0.279-0.303v0zM28.148 40.248h-0.187v-0.317h0.199c0.087-0.007 0.174 0.003 0.257 0.030 0.018 0.016 0.033 0.037 0.043 0.059s0.014 0.047 0.013 0.072c-0.001 0.025-0.008 0.049-0.019 0.070s-0.028 0.041-0.048 0.055c-0.083 0.026-0.17 0.036-0.257 0.030v0z"></path>
<path fill="#8e8f99" style="fill: var(--color1, #8e8f99)" d="M30.836 40.422h0.628v-0.215h-0.628v-0.277h0.678v-0.215h-0.933v1.261h0.957v-0.215h-0.702v-0.341z"></path>
</symbol>
<symbol id="icon-svg-logo-" viewBox="0 0 84 41">
<path fill="#8e8f99" style="fill: var(--color1, #8e8f99)" d="M13.078 12.518h-0.003c-2.386 0-4.32 1.744-4.32 3.895v0.003c0 2.151 1.934 3.894 4.32 3.894h0.003c2.386 0 4.32-1.744 4.32-3.894v-0.003c0-2.151-1.934-3.895-4.32-3.895z"></path>
<path fill="#8e8f99" style="fill: var(--color1, #8e8f99)" d="M44.961 11.273c-0.007-2.988-1.326-5.851-3.668-7.964s-5.518-3.303-8.832-3.309v0c-3.315 0.005-6.491 1.195-8.835 3.308s-3.664 4.977-3.671 7.965v0 16.474c0 0 25.004-2.511 25.006-16.472v-0.002z"></path>
<path fill="#8e8f99" style="fill: var(--color1, #8e8f99)" d="M0 33.154c0.006 2.079 0.924 4.071 2.554 5.541s3.839 2.299 6.145 2.305v0c2.305-0.006 4.514-0.834 6.144-2.304s2.549-3.461 2.555-5.539v0-11.463c0 0-17.398 1.748-17.398 11.461zM8.699 35.208c-0.451 0-0.891-0.121-1.266-0.346s-0.667-0.546-0.839-0.922-0.218-0.788-0.13-1.187c0.088-0.398 0.305-0.764 0.623-1.052s0.724-0.483 1.166-0.562c0.442-0.079 0.9-0.039 1.316 0.117s0.772 0.419 1.022 0.756c0.25 0.338 0.384 0.735 0.384 1.141 0.001 0.27-0.057 0.538-0.171 0.788s-0.282 0.477-0.493 0.669c-0.212 0.192-0.463 0.343-0.74 0.447s-0.574 0.157-0.874 0.157v-0.008z"></path>
<path fill="#8e8f99" style="fill: var(--color1, #8e8f99)" d="M24.609 31.515v4.266h-0.879v-4.266h0.879zM26.308 33.337v0.686h-1.939v-0.686h1.939zM26.513 31.515v0.689h-2.144v-0.689h2.144zM30.527 33.548v0.202c0 0.324-0.044 0.615-0.132 0.873s-0.212 0.478-0.372 0.659c-0.16 0.18-0.352 0.317-0.574 0.413-0.221 0.096-0.466 0.144-0.735 0.144-0.268 0-0.513-0.048-0.735-0.144-0.221-0.096-0.412-0.233-0.574-0.413-0.162-0.182-0.288-0.401-0.378-0.659-0.088-0.258-0.132-0.549-0.132-0.873v-0.202c0-0.326 0.044-0.617 0.132-0.873 0.088-0.258 0.212-0.478 0.372-0.659 0.162-0.182 0.354-0.32 0.574-0.416 0.223-0.096 0.468-0.144 0.735-0.144 0.27 0 0.515 0.048 0.735 0.144 0.223 0.096 0.414 0.234 0.574 0.416 0.162 0.182 0.287 0.401 0.375 0.659 0.090 0.256 0.135 0.547 0.135 0.873zM29.639 33.75v-0.208c0-0.227-0.020-0.426-0.062-0.598s-0.101-0.316-0.182-0.434-0.178-0.205-0.293-0.264c-0.115-0.060-0.247-0.091-0.396-0.091s-0.28 0.030-0.396 0.091c-0.113 0.059-0.21 0.147-0.29 0.264-0.078 0.117-0.138 0.262-0.179 0.434s-0.062 0.371-0.062 0.598v0.208c0 0.225 0.020 0.424 0.062 0.598 0.041 0.172 0.101 0.317 0.182 0.437 0.080 0.117 0.178 0.206 0.293 0.267s0.247 0.091 0.396 0.091c0.148 0 0.28-0.030 0.396-0.091s0.212-0.149 0.29-0.267c0.078-0.119 0.138-0.265 0.179-0.437 0.041-0.174 0.062-0.373 0.062-0.598zM33.38 34.664c0-0.076-0.012-0.145-0.035-0.205-0.022-0.063-0.063-0.119-0.123-0.17-0.061-0.053-0.146-0.105-0.255-0.155s-0.251-0.104-0.425-0.158c-0.193-0.063-0.377-0.133-0.551-0.211-0.172-0.078-0.324-0.169-0.457-0.272-0.131-0.106-0.234-0.228-0.311-0.366-0.074-0.139-0.111-0.3-0.111-0.483 0-0.178 0.039-0.339 0.117-0.483 0.078-0.146 0.188-0.271 0.328-0.375 0.141-0.105 0.307-0.187 0.498-0.243 0.193-0.057 0.405-0.085 0.636-0.085 0.314 0 0.589 0.057 0.823 0.17s0.416 0.269 0.545 0.466c0.131 0.197 0.196 0.423 0.196 0.677h-0.873c0-0.125-0.026-0.234-0.079-0.328-0.051-0.096-0.129-0.171-0.234-0.226-0.104-0.055-0.234-0.082-0.393-0.082-0.152 0-0.279 0.023-0.381 0.070-0.102 0.045-0.178 0.106-0.229 0.185-0.051 0.076-0.076 0.162-0.076 0.258 0 0.072 0.018 0.138 0.053 0.196 0.037 0.059 0.092 0.113 0.164 0.164s0.161 0.099 0.267 0.144c0.106 0.045 0.228 0.089 0.366 0.132 0.232 0.070 0.437 0.149 0.612 0.237 0.178 0.088 0.326 0.187 0.445 0.296s0.209 0.233 0.27 0.372c0.060 0.139 0.091 0.296 0.091 0.472 0 0.186-0.036 0.352-0.108 0.498s-0.177 0.271-0.314 0.372c-0.137 0.101-0.3 0.179-0.489 0.231s-0.401 0.079-0.636 0.079c-0.211 0-0.419-0.027-0.624-0.082-0.205-0.057-0.392-0.142-0.56-0.255-0.166-0.113-0.299-0.258-0.398-0.434s-0.149-0.384-0.149-0.624h0.882c0 0.133 0.020 0.245 0.061 0.337s0.099 0.166 0.173 0.223c0.076 0.057 0.166 0.098 0.27 0.123 0.106 0.025 0.221 0.038 0.346 0.038 0.152 0 0.277-0.022 0.375-0.064 0.1-0.043 0.173-0.103 0.22-0.179 0.049-0.076 0.073-0.162 0.073-0.258zM36.764 31.515v4.266h-0.876v-4.266h0.876zM38.077 31.515v0.689h-3.481v-0.689h3.481zM41.44 35.095v0.686h-2.27v-0.686h2.27zM39.456 31.515v4.266h-0.879v-4.266h0.879zM41.144 33.252v0.668h-1.975v-0.668h1.975zM41.437 31.515v0.689h-2.268v-0.689h2.268zM41.953 31.515h1.591c0.326 0 0.606 0.049 0.841 0.147 0.236 0.098 0.418 0.242 0.545 0.434s0.19 0.427 0.19 0.706c0 0.229-0.039 0.425-0.117 0.589-0.076 0.162-0.184 0.298-0.325 0.407-0.139 0.108-0.302 0.193-0.489 0.258l-0.278 0.146h-1.383l-0.006-0.686h1.028c0.154 0 0.282-0.027 0.384-0.082s0.178-0.131 0.229-0.229c0.053-0.098 0.079-0.211 0.079-0.34 0-0.137-0.025-0.255-0.076-0.355s-0.128-0.176-0.232-0.229-0.233-0.079-0.39-0.079h-0.712v3.577h-0.879v-4.266zM44.337 35.781l-0.973-1.901 0.929-0.006 0.984 1.866v0.041h-0.94zM48.952 34.26h-1.087v-0.686h1.087c0.168 0 0.305-0.027 0.41-0.082 0.106-0.057 0.183-0.135 0.232-0.234s0.073-0.212 0.073-0.337c0-0.127-0.024-0.245-0.073-0.355s-0.126-0.197-0.232-0.264-0.242-0.1-0.41-0.1h-0.782v3.577h-0.879v-4.266h1.661c0.334 0 0.62 0.061 0.858 0.182 0.24 0.119 0.424 0.284 0.551 0.495s0.191 0.452 0.191 0.724c0 0.275-0.064 0.514-0.191 0.715s-0.311 0.357-0.551 0.466c-0.238 0.109-0.525 0.164-0.858 0.164zM54.020 35.095v0.686h-2.27v-0.686h2.27zM52.037 31.515v4.266h-0.879v-4.266h0.879zM53.724 33.252v0.668h-1.975v-0.668h1.975zM54.017 31.515v0.689h-2.268v-0.689h2.268zM56.498 31.515v4.266h-0.876v-4.266h0.876zM57.811 31.515v0.689h-3.48v-0.689h3.48zM61.174 35.095v0.686h-2.27v-0.686h2.27zM59.191 31.515v4.266h-0.879v-4.266h0.879zM60.878 33.252v0.668h-1.975v-0.668h1.975zM61.171 31.515v0.689h-2.268v-0.689h2.268zM61.687 31.515h1.591c0.326 0 0.607 0.049 0.841 0.147 0.236 0.098 0.418 0.242 0.545 0.434s0.19 0.427 0.19 0.706c0 0.229-0.039 0.425-0.117 0.589-0.076 0.162-0.185 0.298-0.325 0.407-0.139 0.108-0.302 0.193-0.489 0.258l-0.278 0.146h-1.383l-0.006-0.686h1.028c0.154 0 0.282-0.027 0.384-0.082s0.178-0.131 0.229-0.229c0.053-0.098 0.079-0.211 0.079-0.34 0-0.137-0.025-0.255-0.076-0.355s-0.128-0.176-0.231-0.229c-0.104-0.053-0.233-0.079-0.39-0.079h-0.712v3.577h-0.879v-4.266zM64.072 35.781l-0.973-1.901 0.929-0.006 0.984 1.866v0.041h-0.94zM67.751 34.664c0-0.076-0.012-0.145-0.035-0.205-0.022-0.063-0.063-0.119-0.123-0.17-0.061-0.053-0.146-0.105-0.255-0.155s-0.251-0.104-0.425-0.158c-0.193-0.063-0.377-0.133-0.551-0.211-0.172-0.078-0.324-0.169-0.457-0.272-0.131-0.106-0.234-0.228-0.311-0.366-0.074-0.139-0.111-0.3-0.111-0.483 0-0.178 0.039-0.339 0.117-0.483 0.078-0.146 0.188-0.271 0.328-0.375 0.141-0.105 0.307-0.187 0.498-0.243 0.193-0.057 0.405-0.085 0.636-0.085 0.314 0 0.589 0.057 0.823 0.17s0.416 0.269 0.545 0.466c0.131 0.197 0.196 0.423 0.196 0.677h-0.873c0-0.125-0.026-0.234-0.079-0.328-0.051-0.096-0.129-0.171-0.234-0.226-0.104-0.055-0.234-0.082-0.393-0.082-0.152 0-0.279 0.023-0.381 0.070-0.102 0.045-0.178 0.106-0.229 0.185-0.051 0.076-0.076 0.162-0.076 0.258 0 0.072 0.018 0.138 0.053 0.196 0.037 0.059 0.092 0.113 0.164 0.164s0.161 0.099 0.267 0.144c0.106 0.045 0.228 0.089 0.366 0.132 0.232 0.070 0.437 0.149 0.612 0.237 0.178 0.088 0.326 0.187 0.445 0.296s0.209 0.233 0.27 0.372c0.060 0.139 0.091 0.296 0.091 0.472 0 0.186-0.036 0.352-0.108 0.498s-0.177 0.271-0.314 0.372c-0.137 0.101-0.3 0.179-0.489 0.231s-0.401 0.079-0.636 0.079c-0.211 0-0.419-0.027-0.624-0.082-0.205-0.057-0.392-0.142-0.56-0.255-0.166-0.113-0.299-0.258-0.398-0.434s-0.149-0.384-0.149-0.624h0.882c0 0.133 0.020 0.245 0.061 0.337s0.099 0.166 0.173 0.223c0.076 0.057 0.166 0.098 0.27 0.123 0.106 0.025 0.221 0.038 0.346 0.038 0.152 0 0.277-0.022 0.375-0.064 0.1-0.043 0.173-0.103 0.22-0.179 0.049-0.076 0.073-0.162 0.073-0.258z"></path>
</symbol>
<symbol id="icon-svg-logo-2" viewBox="0 0 86 41">
<path fill="#8e8f99" style="fill: var(--color1, #8e8f99)" d="M43.304 19.537c-0.405-0.538-0.598-1.175-0.552-1.815v-2.631c0-0.807 0.183-1.42 0.549-1.839s0.995-0.628 1.886-0.626c0.838 0 1.432 0.178 1.784 0.535 0.383 0.455 0.57 1.012 0.527 1.574v0.618h-1.498v-0.626c0.005-0.205-0.009-0.41-0.043-0.613-0.022-0.139-0.097-0.267-0.214-0.364-0.154-0.105-0.348-0.155-0.543-0.142-0.205-0.013-0.409 0.040-0.571 0.15-0.131 0.107-0.218 0.248-0.248 0.402-0.043 0.215-0.063 0.433-0.059 0.65v3.194c-0.024 0.308 0.042 0.616 0.192 0.897 0.075 0.095 0.178 0.17 0.299 0.217s0.255 0.065 0.386 0.050c0.192 0.014 0.382-0.038 0.53-0.145 0.122-0.105 0.201-0.241 0.223-0.388 0.035-0.212 0.051-0.426 0.046-0.64v-0.648h1.498v0.592c0.042 0.585-0.14 1.167-0.518 1.654-0.344 0.391-0.931 0.586-1.793 0.586s-1.514-0.209-1.883-0.642z"></path>
<path fill="#8e8f99" style="fill: var(--color1, #8e8f99)" d="M49.543 19.564c-0.378-0.41-0.568-1.007-0.568-1.796v-2.768c0-0.782 0.189-1.373 0.568-1.775s1.011-0.601 1.898-0.6c0.881 0 1.511 0.2 1.889 0.6 0.378 0.402 0.571 0.993 0.571 1.775v2.768c0 0.782-0.192 1.381-0.577 1.793s-1.011 0.618-1.883 0.618-1.517-0.209-1.898-0.616zM52.139 18.9c0.136-0.256 0.197-0.538 0.18-0.819v-3.389c0.017-0.276-0.043-0.552-0.177-0.803-0.076-0.097-0.182-0.173-0.306-0.221s-0.261-0.064-0.395-0.047c-0.135-0.016-0.272 0-0.396 0.048s-0.231 0.123-0.308 0.22c-0.136 0.251-0.198 0.527-0.18 0.803v3.405c-0.019 0.282 0.043 0.563 0.18 0.819 0.087 0.086 0.195 0.156 0.316 0.203s0.252 0.072 0.385 0.072 0.264-0.025 0.385-0.072c0.121-0.047 0.229-0.117 0.316-0.203v-0.016z"></path>
<path fill="#8e8f99" style="fill: var(--color1, #8e8f99)" d="M55.703 12.706h1.613l1.213 5.107 1.241-5.107h1.57l0.158 7.371h-1.16l-0.124-5.123-1.197 5.123h-0.931l-1.241-5.142-0.115 5.142h-1.173l0.146-7.371z"></path>
<path fill="#8e8f99" style="fill: var(--color1, #8e8f99)" d="M63.307 12.706h2.513c1.448 0 2.171 0.698 2.171 2.093 0 1.337-0.762 2.004-2.286 2.002h-0.856v3.276h-1.551l0.009-7.371zM65.453 15.857c0.153 0.017 0.309 0.005 0.456-0.036s0.283-0.108 0.397-0.197c0.178-0.249 0.256-0.541 0.223-0.832 0.008-0.225-0.017-0.45-0.074-0.669-0.022-0.073-0.061-0.142-0.114-0.202s-0.12-0.111-0.196-0.148c-0.215-0.089-0.453-0.13-0.692-0.118h-0.602v2.203h0.602z"></path>
<path fill="#8e8f99" style="fill: var(--color1, #8e8f99)" d="M70.227 12.706h1.666l1.709 7.371h-1.446l-0.338-1.7h-1.486l-0.347 1.7h-1.467l1.709-7.371zM71.651 17.524l-0.58-3.094-0.58 3.094h1.16z"></path>
<path fill="#8e8f99" style="fill: var(--color1, #8e8f99)" d="M74.983 12.706h1.086l2.078 4.205v-4.205h1.287v7.371h-1.033l-2.091-4.39v4.39h-1.331l0.003-7.371z"></path>
<path fill="#8e8f99" style="fill: var(--color1, #8e8f99)" d="M82.449 17.267l-1.728-4.55h1.455l1.055 2.923 0.99-2.923h1.424l-1.706 4.55v2.811h-1.489v-2.811z"></path>
<path fill="#8e8f99" style="fill: var(--color1, #8e8f99)" d="M45.699 23.3v0.385h-1.266v2.995h-0.53v-2.995h-1.272v-0.385h3.068z"></path>
<path fill="#8e8f99" style="fill: var(--color1, #8e8f99)" d="M49.667 26.681h-0.409c-0.042 0.002-0.083-0.009-0.115-0.032-0.031-0.020-0.055-0.047-0.068-0.078l-0.366-0.803h-1.756l-0.366 0.803c-0.010 0.034-0.029 0.065-0.056 0.091-0.033 0.022-0.073 0.034-0.115 0.032h-0.409l1.551-3.381h0.54l1.57 3.367zM47.098 25.426h1.464l-0.62-1.376c-0.046-0.104-0.084-0.21-0.115-0.319-0.022 0.064-0.040 0.126-0.059 0.179l-0.056 0.142-0.614 1.373z"></path>
<path fill="#8e8f99" style="fill: var(--color1, #8e8f99)" d="M52.341 26.35c0.097 0.004 0.194 0.004 0.292 0 0.084-0.007 0.167-0.021 0.248-0.040 0.076-0.016 0.151-0.037 0.223-0.062 0.068-0.024 0.136-0.053 0.208-0.083v-0.76h-0.62c-0.015 0.001-0.031-0.001-0.045-0.006s-0.028-0.012-0.039-0.021c-0.010-0.008-0.018-0.017-0.024-0.028s-0.008-0.022-0.007-0.034v-0.26h1.204v1.296c-0.098 0.061-0.202 0.114-0.31 0.161-0.111 0.047-0.226 0.086-0.344 0.115-0.127 0.032-0.257 0.055-0.388 0.070-0.15 0.014-0.302 0.022-0.453 0.021-0.268 0.002-0.533-0.041-0.782-0.126-0.232-0.081-0.443-0.201-0.62-0.353-0.173-0.154-0.309-0.336-0.4-0.535-0.098-0.224-0.146-0.462-0.143-0.701-0.003-0.241 0.044-0.48 0.14-0.707 0.089-0.2 0.225-0.383 0.4-0.535 0.177-0.152 0.388-0.271 0.62-0.351 0.266-0.086 0.548-0.129 0.831-0.126 0.144-0 0.289 0.010 0.431 0.029 0.126 0.018 0.25 0.046 0.369 0.086 0.109 0.035 0.212 0.080 0.31 0.134 0.095 0.053 0.185 0.112 0.27 0.177l-0.149 0.209c-0.012 0.019-0.029 0.035-0.050 0.046s-0.046 0.017-0.071 0.018c-0.034-0.001-0.068-0.010-0.096-0.027-0.046-0.021-0.096-0.048-0.152-0.080-0.066-0.036-0.135-0.066-0.208-0.091-0.092-0.032-0.188-0.057-0.285-0.075-0.13-0.021-0.262-0.031-0.394-0.029-0.205-0.002-0.408 0.030-0.599 0.094-0.173 0.060-0.328 0.151-0.456 0.268-0.129 0.122-0.227 0.265-0.289 0.42-0.139 0.366-0.139 0.761 0 1.127 0.068 0.159 0.174 0.304 0.31 0.426 0.127 0.116 0.282 0.207 0.453 0.268 0.197 0.058 0.406 0.081 0.614 0.067v0z"></path>
<path fill="#8e8f99" style="fill: var(--color1, #8e8f99)" d="M57.286 26.296h1.694v0.385h-2.212v-3.381h0.53l-0.012 2.995z"></path>
<path fill="#8e8f99" style="fill: var(--color1, #8e8f99)" d="M60.741 26.681h-0.53v-3.381h0.53v3.381z"></path>
<path fill="#8e8f99" style="fill: var(--color1, #8e8f99)" d="M62.714 23.317c0.032 0.015 0.059 0.036 0.081 0.062l2.267 2.548c-0.003-0.040-0.003-0.080 0-0.12 0-0.037 0-0.075 0-0.11v-2.409h0.462v3.394h-0.267c-0.039 0.003-0.079-0.004-0.115-0.019-0.032-0.017-0.061-0.039-0.084-0.064l-2.264-2.546c0 0.040 0 0.078 0 0.115s0 0.072 0 0.104v2.409h-0.444v-3.381h0.276c0.030 0 0.059 0.005 0.087 0.016v0z"></path>
<path fill="#8e8f99" style="fill: var(--color1, #8e8f99)" d="M69.43 23.3v0.372h-1.88v1.116h1.523v0.359h-1.523v1.154h1.88v0.372h-2.426v-3.373h2.426z"></path>
<path fill="#8e8f99" style="fill: var(--color1, #8e8f99)" d="M13.845 2.422l23.554 5.771v20.223l-23.554-5.768v-20.225zM12.334 0.699v22.931l26.572 6.512v-22.929l-26.572-6.515z"></path>
<path fill="#8e8f99" style="fill: var(--color1, #8e8f99)" d="M26.575 40.787l-26.575-6.518v-22.929l26.575 6.515v22.932z"></path>
<path fill="#8e8f99" style="fill: var(--color1, #8e8f99)" d="M12.774 2.163l23.247 5.699-9.886 8.533-23.25-5.701 9.889-8.531zM12.334 0.699l-12.334 10.643 26.575 6.515 12.331-10.642-26.572-6.515z"></path>
<path fill="#8e8f99" style="fill: var(--color1, #8e8f99)" d="M28.071 39.497l10.835-9.352-10.835-2.658v12.010z"></path>
</symbol>
<symbol id="icon-svg-logo-3" viewBox="0 0 44 41">
<path fill="#8e8f99" style="fill: var(--color1, #8e8f99)" d="M6.81 40.223c0.016 0 0.032 0.003 0.047 0.009s0.028 0.014 0.039 0.024l0.221 0.208c-0.171 0.168-0.383 0.302-0.621 0.394-0.278 0.1-0.579 0.148-0.881 0.141-0.284 0.005-0.566-0.040-0.828-0.132-0.237-0.085-0.45-0.212-0.624-0.373-0.178-0.167-0.315-0.363-0.403-0.575-0.096-0.237-0.144-0.487-0.141-0.738-0.004-0.253 0.048-0.504 0.152-0.741 0.096-0.214 0.242-0.41 0.428-0.575 0.189-0.163 0.414-0.29 0.662-0.375 0.272-0.090 0.561-0.135 0.853-0.132 0.271-0.006 0.54 0.035 0.792 0.12 0.219 0.081 0.419 0.194 0.593 0.333l-0.185 0.222c-0.013 0.016-0.029 0.029-0.047 0.040-0.022 0.013-0.048 0.019-0.075 0.017-0.029-0.002-0.056-0.010-0.080-0.024l-0.099-0.059-0.138-0.076c-0.060-0.028-0.121-0.052-0.185-0.073-0.082-0.025-0.166-0.045-0.251-0.059-0.108-0.017-0.218-0.025-0.328-0.024-0.21-0.002-0.418 0.032-0.613 0.099-0.181 0.063-0.345 0.158-0.48 0.278-0.138 0.128-0.244 0.279-0.312 0.444-0.078 0.188-0.116 0.386-0.113 0.585-0.003 0.202 0.035 0.403 0.113 0.594 0.067 0.163 0.171 0.313 0.306 0.441 0.126 0.12 0.283 0.213 0.458 0.274 0.18 0.064 0.374 0.096 0.569 0.094 0.113 0.001 0.225-0.005 0.337-0.019 0.182-0.019 0.357-0.073 0.511-0.158 0.077-0.043 0.15-0.092 0.218-0.146 0.028-0.023 0.066-0.037 0.105-0.038v0z"></path>
<path fill="#8e8f99" style="fill: var(--color1, #8e8f99)" d="M13.186 39.18c0.003 0.25-0.047 0.499-0.149 0.734-0.090 0.213-0.232 0.407-0.416 0.57s-0.407 0.29-0.653 0.374c-0.54 0.176-1.138 0.176-1.678 0-0.244-0.085-0.465-0.213-0.649-0.375-0.184-0.165-0.327-0.361-0.42-0.575-0.199-0.475-0.199-0.994 0-1.469 0.094-0.214 0.237-0.411 0.42-0.578 0.185-0.157 0.406-0.28 0.649-0.361 0.54-0.179 1.139-0.179 1.678 0 0.245 0.085 0.467 0.213 0.652 0.375 0.182 0.164 0.323 0.357 0.417 0.568 0.102 0.236 0.153 0.487 0.149 0.738zM12.606 39.18c0.004-0.2-0.031-0.4-0.105-0.59-0.062-0.163-0.162-0.313-0.295-0.441-0.129-0.121-0.289-0.216-0.466-0.278-0.393-0.129-0.827-0.129-1.22 0-0.178 0.062-0.337 0.157-0.466 0.278-0.135 0.127-0.236 0.278-0.298 0.441-0.14 0.384-0.14 0.795 0 1.179 0.062 0.163 0.164 0.313 0.298 0.441 0.13 0.121 0.289 0.215 0.466 0.276 0.393 0.126 0.827 0.126 1.22 0 0.178-0.061 0.337-0.156 0.466-0.276 0.132-0.128 0.233-0.279 0.295-0.441 0.074-0.19 0.11-0.389 0.105-0.59v0z"></path>
<path fill="#8e8f99" style="fill: var(--color1, #8e8f99)" d="M17.537 39.799l0.058 0.132c0.022-0.047 0.041-0.090 0.064-0.132 0.021-0.044 0.045-0.088 0.072-0.13l1.41-2.191c0.028-0.038 0.052-0.061 0.080-0.068 0.038-0.010 0.077-0.014 0.116-0.012h0.417v3.564h-0.494v-2.62c0-0.033 0-0.071 0-0.111-0.003-0.041-0.003-0.082 0-0.123l-1.419 2.221c-0.018 0.033-0.047 0.062-0.083 0.081s-0.078 0.030-0.121 0.030h-0.080c-0.043 0-0.085-0.010-0.122-0.029s-0.065-0.048-0.083-0.082l-1.46-2.236c0 0.042 0 0.085 0 0.127s0 0.080 0 0.113v2.62h-0.478v-3.556h0.417c0.039-0.002 0.078 0.002 0.116 0.012 0.034 0.014 0.062 0.039 0.077 0.068l1.441 2.193c0.028 0.041 0.052 0.083 0.072 0.127v0z"></path>
<path fill="#8e8f99" style="fill: var(--color1, #8e8f99)" d="M22.845 39.622v1.335h-0.552v-3.559h1.231c0.232-0.004 0.464 0.022 0.687 0.078 0.179 0.043 0.344 0.119 0.486 0.222 0.123 0.096 0.217 0.216 0.276 0.349 0.065 0.145 0.097 0.3 0.094 0.455 0.002 0.156-0.032 0.311-0.102 0.455-0.066 0.137-0.168 0.258-0.298 0.356-0.142 0.107-0.308 0.188-0.489 0.236-0.215 0.059-0.44 0.086-0.665 0.082l-0.668-0.009zM22.845 39.24h0.668c0.145 0.002 0.289-0.017 0.428-0.054 0.114-0.033 0.219-0.085 0.309-0.153 0.083-0.065 0.147-0.146 0.188-0.236 0.045-0.095 0.068-0.197 0.066-0.299 0.006-0.099-0.012-0.198-0.055-0.29s-0.109-0.175-0.193-0.243c-0.211-0.141-0.476-0.209-0.742-0.191h-0.668v1.467z"></path>
<path fill="#8e8f99" style="fill: var(--color1, #8e8f99)" d="M30.264 40.961h-0.436c-0.044 0.001-0.087-0.010-0.121-0.033-0.031-0.022-0.056-0.050-0.072-0.082l-0.375-0.861h-1.885l-0.389 0.861c-0.014 0.032-0.038 0.059-0.069 0.080-0.035 0.024-0.079 0.037-0.124 0.035h-0.436l1.656-3.564h0.574l1.678 3.564zM27.532 39.638h1.557l-0.657-1.45c-0.050-0.109-0.092-0.221-0.124-0.335l-0.064 0.186c-0.019 0.057-0.041 0.109-0.061 0.151l-0.652 1.448z"></path>
<path fill="#8e8f99" style="fill: var(--color1, #8e8f99)" d="M32.649 37.414c0.033 0.015 0.061 0.037 0.083 0.064l2.415 2.686c0-0.042 0-0.085 0-0.125s0-0.080 0-0.118v-2.524h0.494v3.564h-0.276c-0.039 0.001-0.078-0.006-0.113-0.021-0.034-0.017-0.064-0.040-0.088-0.066l-2.413-2.684c0.003 0.041 0.003 0.082 0 0.123 0 0.040 0 0.076 0 0.109v2.54h-0.494v-3.564h0.293c0.034-0.001 0.068 0.005 0.099 0.016v0z"></path>
<path fill="#8e8f99" style="fill: var(--color1, #8e8f99)" d="M39.71 39.544v1.415h-0.552v-1.415l-1.526-2.146h0.494c0.043-0.002 0.085 0.009 0.119 0.031 0.030 0.023 0.055 0.050 0.075 0.080l0.955 1.384c0.039 0.059 0.072 0.113 0.099 0.165s0.050 0.101 0.069 0.151l0.072-0.153c0.027-0.056 0.058-0.111 0.094-0.163l0.941-1.394c0.020-0.028 0.044-0.053 0.072-0.075 0.033-0.025 0.075-0.037 0.119-0.035h0.5l-1.529 2.156z"></path>
<path fill="#8e8f99" style="fill: var(--color1, #8e8f99)" d="M17.263 31.417c0.24 0.026 0.483 0.047 0.729 0.066 3.725-1.424 6.875-3.754 9.059-6.699s3.302-6.375 3.217-9.86l-4.105-3.507c0.835 3.711 0.444 7.547-1.127 11.079s-4.263 6.621-7.772 8.921v0z"></path>
<path fill="#8e8f99" style="fill: var(--color1, #8e8f99)" d="M15.797 31.254l0.11 0.019c3.75-2.292 6.609-5.492 8.207-9.187s1.862-7.714 0.758-11.539l-5.846-4.995c2.365 4.106 3.317 8.701 2.745 13.251s-2.643 8.868-5.974 12.451v0z"></path>
<path fill="#8e8f99" style="fill: var(--color1, #8e8f99)" d="M35.625 19.042c-0.993 3.83-3.406 7.283-6.879 9.849-1.014 0.753-2.108 1.424-3.268 2.005 2.828-0.71 5.428-1.966 7.598-3.67s3.854-3.812 4.92-6.16l-2.371-2.023z"></path>
<path fill="#8e8f99" style="fill: var(--color1, #8e8f99)" d="M34.695 18.478l-3.376-2.884c-0.065 3.288-1.159 6.502-3.169 9.307s-4.863 5.099-8.262 6.643h0.017c0.757-0 1.514-0.039 2.266-0.116 3.176-1.108 5.982-2.87 8.168-5.13s3.682-4.946 4.356-7.821v0z"></path>
<path fill="#8e8f99" style="fill: var(--color1, #8e8f99)" d="M16.286 3.446l-4.027-3.446c-3.6 1.189-6.697 3.278-8.884 5.996s-3.364 5.935-3.375 9.233v0c0.013 3.644 1.449 7.18 4.079 10.048s6.305 4.906 10.443 5.789c3.694-3.845 5.856-8.596 6.174-13.563s-1.228-9.891-4.41-14.057v0z"></path>
<path fill="#8e8f99" style="fill: var(--color1, #8e8f99)" d="M44 17.948c-0.015-4.323-2.031-8.466-5.609-11.523s-8.427-4.78-13.487-4.792v0c-2.338-0.002-4.657 0.367-6.837 1.087l24.658 21.068c0.844-1.862 1.277-3.842 1.275-5.839v0z"></path>
</symbol>
<symbol id="icon-svg-logo-1" viewBox="0 0 36 41">
<path fill="#8e8f99" style="fill: var(--color1, #8e8f99)" d="M5.234 0l6.113 5.824-11.347-0.007v28.257h29.66v-10.804l6.106 5.818v-29.088h-30.532zM29.391 22.587l-17.333-16.514h17.333v16.514zM24.010 29.941h-19.316v-19.004h1.365v17.717h17.951v1.287zM8.545 39.309l-0.72-1.48h-0.594l1.044 1.959v1.142h0.539v-1.142l1.044-1.959h-0.592l-0.72 1.48zM11.199 37.828h0.128l1.171 3.101h-0.562l-0.251-0.726h-1.2l-0.25 0.726h-0.56l1.167-3.101h0.358zM10.631 39.779h0.908l-0.454-1.315-0.453 1.315zM14.378 39.266c-0.023-0.030-0.046-0.059-0.067-0.087-0.080-0.105-0.141-0.207-0.185-0.305-0.044-0.099-0.066-0.202-0.066-0.307 0-0.162 0.033-0.301 0.1-0.417s0.161-0.206 0.283-0.268c0.122-0.064 0.265-0.096 0.428-0.096 0.158 0 0.293 0.032 0.407 0.096 0.115 0.062 0.203 0.146 0.264 0.249 0.062 0.104 0.094 0.217 0.094 0.341 0 0.098-0.018 0.187-0.053 0.268s-0.084 0.155-0.147 0.221c-0.062 0.067-0.135 0.13-0.217 0.19l-0.215 0.157 0.614 0.725c0.020-0.040 0.039-0.082 0.055-0.125 0.053-0.136 0.079-0.288 0.079-0.454h0.443c0 0.151-0.015 0.293-0.045 0.428-0.028 0.135-0.075 0.26-0.138 0.375-0.026 0.048-0.055 0.093-0.088 0.137l0.454 0.536h-0.594l-0.18-0.212c-0.098 0.074-0.204 0.132-0.318 0.174-0.15 0.054-0.311 0.081-0.481 0.081-0.206 0-0.384-0.038-0.535-0.113s-0.267-0.179-0.349-0.311c-0.081-0.132-0.121-0.283-0.121-0.454 0-0.126 0.026-0.237 0.079-0.332 0.053-0.096 0.124-0.186 0.215-0.268 0.084-0.076 0.18-0.152 0.287-0.228zM14.632 39.577l-0.064 0.047c-0.075 0.061-0.131 0.12-0.168 0.177-0.036 0.055-0.059 0.107-0.070 0.153s-0.017 0.088-0.017 0.124c0 0.091 0.019 0.173 0.057 0.247 0.040 0.074 0.097 0.133 0.173 0.177 0.077 0.043 0.17 0.064 0.279 0.064 0.118 0 0.232-0.026 0.343-0.079 0.055-0.027 0.108-0.060 0.158-0.098l-0.69-0.812zM14.755 39.011l0.19-0.128c0.089-0.060 0.153-0.118 0.192-0.175 0.038-0.058 0.057-0.131 0.057-0.217 0-0.074-0.028-0.142-0.085-0.204s-0.137-0.094-0.241-0.094c-0.072 0-0.133 0.017-0.183 0.051-0.050 0.033-0.087 0.077-0.113 0.132-0.024 0.054-0.036 0.114-0.036 0.181 0 0.064 0.016 0.13 0.049 0.198 0.033 0.067 0.077 0.137 0.134 0.211 0.012 0.015 0.023 0.030 0.036 0.045zM20.18 39.92h-0.532c-0.016 0.135-0.048 0.249-0.098 0.343-0.048 0.092-0.12 0.163-0.215 0.211-0.094 0.048-0.217 0.072-0.368 0.072-0.125 0-0.232-0.025-0.322-0.075s-0.163-0.12-0.221-0.211c-0.057-0.091-0.099-0.2-0.128-0.326-0.027-0.128-0.040-0.27-0.040-0.426v-0.262c0-0.165 0.015-0.311 0.045-0.439 0.031-0.129 0.077-0.238 0.138-0.326s0.137-0.155 0.228-0.2c0.091-0.045 0.197-0.068 0.319-0.068 0.149 0 0.27 0.026 0.362 0.077 0.092 0.050 0.162 0.122 0.209 0.217 0.048 0.095 0.079 0.209 0.094 0.343h0.532c-0.021-0.207-0.079-0.391-0.175-0.552-0.094-0.16-0.226-0.286-0.396-0.377s-0.379-0.136-0.626-0.136c-0.195 0-0.37 0.034-0.526 0.102-0.155 0.068-0.287 0.167-0.398 0.296-0.111 0.128-0.196 0.282-0.256 0.462-0.058 0.18-0.087 0.382-0.087 0.605v0.258c0 0.223 0.028 0.425 0.085 0.605 0.058 0.18 0.142 0.334 0.251 0.462 0.109 0.126 0.241 0.224 0.394 0.294 0.153 0.068 0.326 0.102 0.518 0.102 0.25 0 0.462-0.045 0.637-0.136s0.31-0.215 0.407-0.373c0.097-0.159 0.153-0.34 0.17-0.543zM23.138 39.464v-0.17c0-0.234-0.031-0.444-0.094-0.628-0.061-0.186-0.148-0.344-0.262-0.475-0.114-0.132-0.249-0.232-0.407-0.3-0.158-0.070-0.332-0.104-0.524-0.104-0.19 0-0.364 0.035-0.522 0.104-0.156 0.068-0.292 0.168-0.407 0.3-0.114 0.131-0.202 0.289-0.264 0.475-0.062 0.185-0.094 0.394-0.094 0.628v0.17c0 0.234 0.031 0.444 0.094 0.63 0.064 0.186 0.153 0.344 0.268 0.475s0.251 0.231 0.407 0.3c0.158 0.068 0.332 0.102 0.522 0.102 0.192 0 0.366-0.034 0.524-0.102 0.158-0.070 0.292-0.17 0.405-0.3 0.114-0.131 0.201-0.289 0.262-0.475s0.092-0.396 0.092-0.63zM22.604 39.289v0.175c0 0.173-0.017 0.327-0.051 0.46-0.033 0.133-0.081 0.246-0.145 0.339-0.064 0.091-0.142 0.16-0.234 0.207-0.092 0.045-0.198 0.068-0.317 0.068-0.118 0-0.223-0.023-0.315-0.068-0.092-0.047-0.172-0.116-0.239-0.207-0.065-0.092-0.115-0.205-0.149-0.339s-0.051-0.287-0.051-0.46v-0.175c0-0.173 0.017-0.326 0.051-0.458 0.034-0.133 0.083-0.245 0.147-0.334 0.065-0.091 0.144-0.159 0.236-0.204 0.092-0.047 0.197-0.070 0.315-0.070s0.224 0.023 0.317 0.070c0.094 0.045 0.172 0.114 0.236 0.204 0.065 0.089 0.114 0.201 0.147 0.334 0.034 0.132 0.051 0.285 0.051 0.458z"></path>
</symbol>
<symbol id="icon-group-3--" viewBox="0 0 56 41">
<path fill="#8e8f99" style="fill: var(--color1, #8e8f99)" d="M4.271 34.202c0.219 0.244 0.335 0.549 0.329 0.863 0.011 0.204-0.029 0.408-0.117 0.597s-0.223 0.357-0.393 0.492c-0.425 0.289-0.952 0.43-1.483 0.398h-2.607v-5.466h2.554c0.504-0.030 1.004 0.098 1.415 0.363 0.165 0.124 0.296 0.281 0.381 0.459s0.125 0.371 0.114 0.564c0.015 0.302-0.090 0.598-0.297 0.836-0.198 0.217-0.472 0.368-0.777 0.427 0.346 0.057 0.658 0.222 0.881 0.467v0zM1.213 33.377h1.091c0.248 0.017 0.494-0.048 0.694-0.182 0.082-0.067 0.146-0.15 0.186-0.242s0.057-0.192 0.048-0.292c0.008-0.099-0.009-0.198-0.049-0.29s-0.102-0.175-0.182-0.244c-0.206-0.137-0.46-0.203-0.715-0.184h-1.074v1.434zM3.105 35.473c0.088-0.068 0.156-0.154 0.201-0.25s0.064-0.201 0.057-0.305c0.007-0.105-0.014-0.211-0.059-0.308s-0.116-0.184-0.205-0.253c-0.214-0.143-0.476-0.212-0.741-0.198h-1.145v1.503h1.16c0.261 0.014 0.519-0.053 0.733-0.19v0z"></path>
<path fill="#8e8f99" style="fill: var(--color1, #8e8f99)" d="M9.491 36.552l-1.421-2.136h-0.534v2.136h-1.222v-5.466h2.313c0.583-0.037 1.16 0.13 1.611 0.465 0.323 0.297 0.518 0.688 0.55 1.102s-0.102 0.826-0.378 1.159c-0.285 0.294-0.675 0.491-1.103 0.555l1.513 2.184h-1.329zM7.537 33.671h1c0.694 0 1.041-0.276 1.041-0.828 0.007-0.113-0.012-0.225-0.056-0.331s-0.112-0.202-0.199-0.283c-0.219-0.164-0.502-0.244-0.786-0.222h-1.011l0.012 1.664z"></path>
<path fill="#8e8f99" style="fill: var(--color1, #8e8f99)" d="M16.171 35.452h-2.435l-0.43 1.1h-1.281l2.236-5.404h1.385l2.227 5.404h-1.281l-0.421-1.1zM15.844 34.624l-0.89-2.307-0.89 2.307h1.78z"></path>
<path fill="#8e8f99" style="fill: var(--color1, #8e8f99)" d="M24.532 36.552h-1.213l-2.72-3.717v3.717h-1.21v-5.466h1.21l2.72 3.738v-3.738h1.213v5.466z"></path>
<path fill="#8e8f99" style="fill: var(--color1, #8e8f99)" d="M31.454 35.244c-0.251 0.413-0.633 0.748-1.097 0.964-0.528 0.24-1.114 0.358-1.705 0.344h-2.159v-5.466h2.159c0.59-0.014 1.176 0.102 1.705 0.336 0.464 0.211 0.847 0.543 1.097 0.953 0.25 0.444 0.38 0.936 0.38 1.434s-0.13 0.989-0.38 1.434v0zM30.066 35.113c0.346-0.363 0.537-0.826 0.537-1.304s-0.19-0.941-0.537-1.304c-0.418-0.329-0.964-0.496-1.519-0.465h-0.842v3.538h0.842c0.554 0.031 1.1-0.136 1.519-0.465z"></path>
<path fill="#8e8f99" style="fill: var(--color1, #8e8f99)" d="M16.93 0.683c0 0 15.657 5.322 15.325 13.022v13.025c0 0-15.646-5.324-15.319-13.025l-0.006-13.022z"></path>
<path fill="#8e8f99" style="fill: var(--color1, #8e8f99)" d="M46.204 23.681c2.957-1.832 6.377-2.967 9.948-3.3v-4.077c-4.114 1.427-7.604 4.016-9.948 7.378v0z"></path>
<path fill="#8e8f99" style="fill: var(--color1, #8e8f99)" d="M44.428 24.91c2.42-4.387 6.616-7.773 11.725-9.46v-11.749c0 0-22.298 7.581-21.827 18.547v18.544c0 0 0.994-0.339 2.557-0.975 0-0.593 0-1.191 0.071-1.792 0.462-5.091 3.15-9.809 7.474-13.116v0z"></path>
<path fill="#8e8f99" style="fill: var(--color1, #8e8f99)" d="M42.307 31.799c0.117-1.286 0.379-2.558 0.78-3.797-2.693 2.856-4.323 6.4-4.663 10.133-0.033 0.353-0.050 0.705-0.059 1.068 1.267-0.547 2.741-1.231 4.289-2.035-0.395-1.766-0.512-3.574-0.347-5.37v0z"></path>
<path fill="#8e8f99" style="fill: var(--color1, #8e8f99)" d="M43.194 31.866c-0.148 1.625-0.056 3.26 0.276 4.862 6.092-3.282 12.938-8.352 12.674-14.48v-0.534c-4.353 0.438-8.425 2.151-11.591 4.876-0.741 1.688-1.199 3.466-1.358 5.276v0z"></path>
</symbol>
</defs>
</svg>
