<svg aria-hidden="true" version="1.1" xmlns="http://www.w3.org/2000/svg" xmlns:xlink="http://www.w3.org/1999/xlink">
<defs>
<symbol id="icon-person-black-18dp-1" viewBox="0 0 15 15">
<path d="M7.5 7.5c1.381 0 2.5-1.119 2.5-2.5s-1.119-2.5-2.5-2.5c-1.381 0-2.5 1.119-2.5 2.5s1.119 2.5 2.5 2.5zM7.5 8.75c-1.669 0-5 0.837-5 2.5v0.625c0 0.344 0.281 0.625 0.625 0.625h8.75c0.344 0 0.625-0.281 0.625-0.625v-0.625c0-1.662-3.331-2.5-5-2.5z"></path>
</symbol>
<symbol id="icon-phone-black-18dp-1" viewBox="0 0 11 15">
<path d="M9.204 8.666l-1.149-0.131c-0.276-0.032-0.547 0.063-0.742 0.258l-0.832 0.832c-1.28-0.651-2.329-1.696-2.981-2.981l0.837-0.837c0.194-0.194 0.289-0.466 0.258-0.742l-0.131-1.14c-0.054-0.457-0.439-0.801-0.9-0.801h-0.782c-0.511 0-0.936 0.425-0.905 0.936 0.24 3.863 3.329 6.947 7.187 7.187 0.511 0.032 0.936-0.394 0.936-0.905v-0.783c0.005-0.457-0.339-0.841-0.796-0.896z"></path>
</symbol>
<symbol id="icon-email-black-18dp-1" viewBox="0 0 11 15">
<path d="M9.375 3.75h-7.5c-0.516 0-0.933 0.422-0.933 0.938l-0.005 5.625c0 0.516 0.422 0.938 0.938 0.938h7.5c0.516 0 0.938-0.422 0.938-0.938v-5.625c0-0.516-0.422-0.938-0.938-0.938zM9.188 5.742l-3.314 2.072c-0.15 0.094-0.347 0.094-0.497 0l-3.314-2.072c-0.117-0.075-0.188-0.202-0.188-0.338 0-0.314 0.342-0.502 0.609-0.338l3.141 1.964 3.141-1.964c0.267-0.164 0.609 0.023 0.609 0.338 0 0.136-0.070 0.263-0.188 0.338z"></path>
</symbol>
</defs>
</svg>
