<svg aria-hidden="true" style="position: absolute; width: 0; height: 0; overflow: hidden;" version="1.1" xmlns="http://www.w3.org/2000/svg" xmlns:xlink="http://www.w3.org/1999/xlink">
<defs>
<symbol id="icon-in" viewBox="0 0 41 41">
<path fill="#4d5ae5" style="fill: var(--color1, #4d5ae5)" d="M41 20.5c0 5.661-2.295 10.786-6.004 14.496s-8.835 6.004-14.496 6.004c-5.661 0-10.786-2.295-14.496-6.004s-6.004-8.835-6.004-14.496c0-5.661 2.295-10.786 6.004-14.496s8.835-6.004 14.496-6.004c5.661 0 10.786 2.295 14.496 6.004s6.004 8.835 6.004 14.496z"></path>
<path fill="#f4f4fd" style="fill: var(--color2, #f4f4fd)" d="M28.696 28.7v-0.001h0.004v-6.015c0-2.942-0.633-5.209-4.073-5.209-1.654 0-2.763 0.907-3.216 1.768h-0.048v-1.493h-3.262v10.949h3.396v-5.422c0-1.428 0.271-2.808 2.038-2.808 1.742 0 1.768 1.629 1.768 2.899v5.331h3.393z"></path>
<path fill="#f4f4fd" style="fill: var(--color2, #f4f4fd)" d="M12.571 17.751h3.4v10.949h-3.4v-10.949z"></path>
<path fill="#f4f4fd" style="fill: var(--color2, #f4f4fd)" d="M14.269 12.3c-1.087 0-1.969 0.882-1.969 1.969s0.882 1.988 1.969 1.988c1.087 0 1.969-0.901 1.969-1.988s-0.883-1.969-1.969-1.969v0z"></path>
</symbol>
<symbol id="icon-instagam" viewBox="0 0 41 41">
<path fill="#4d5ae5" style="fill: var(--color1, #4d5ae5)" d="M41 20.5c0 5.661-2.295 10.786-6.004 14.496s-8.835 6.004-14.496 6.004c-5.661 0-10.786-2.295-14.496-6.004s-6.004-8.835-6.004-14.496c0-5.661 2.295-10.786 6.004-14.496s8.835-6.004 14.496-6.004c5.661 0 10.786 2.295 14.496 6.004s6.004 8.835 6.004 14.496z"></path>
<path fill="#f4f4fd" style="fill: var(--color2, #f4f4fd)" d="M28.684 17.122c-0.038-0.871-0.179-1.47-0.381-1.99-0.208-0.551-0.529-1.044-0.948-1.454-0.41-0.416-0.907-0.74-1.451-0.945-0.522-0.202-1.118-0.343-1.99-0.381-0.878-0.042-1.157-0.051-3.383-0.051s-2.505 0.010-3.38 0.048c-0.871 0.038-1.47 0.179-1.989 0.381-0.551 0.208-1.044 0.529-1.455 0.948-0.416 0.41-0.74 0.907-0.945 1.451-0.202 0.522-0.343 1.118-0.381 1.989-0.042 0.878-0.051 1.157-0.051 3.383s0.010 2.505 0.048 3.38c0.038 0.871 0.179 1.47 0.381 1.99 0.208 0.551 0.532 1.044 0.948 1.454 0.41 0.416 0.907 0.74 1.451 0.945 0.522 0.202 1.118 0.343 1.99 0.381 0.875 0.039 1.153 0.048 3.38 0.048s2.505-0.009 3.38-0.048c0.871-0.038 1.47-0.179 1.989-0.381 1.102-0.426 1.974-1.297 2.4-2.4 0.202-0.522 0.343-1.118 0.381-1.99 0.038-0.875 0.048-1.153 0.048-3.38s-0.003-2.505-0.042-3.38zM27.207 23.817c-0.035 0.801-0.17 1.233-0.282 1.522-0.276 0.714-0.843 1.282-1.557 1.557-0.288 0.112-0.724 0.247-1.522 0.282-0.865 0.039-1.124 0.048-3.313 0.048s-2.451-0.009-3.313-0.048c-0.801-0.035-1.233-0.17-1.522-0.282-0.356-0.131-0.679-0.34-0.942-0.612-0.272-0.266-0.481-0.586-0.612-0.942-0.112-0.288-0.247-0.724-0.282-1.522-0.039-0.865-0.048-1.125-0.048-3.313s0.010-2.451 0.048-3.313c0.035-0.801 0.17-1.233 0.282-1.522 0.131-0.356 0.34-0.679 0.615-0.942 0.266-0.272 0.586-0.481 0.942-0.612 0.288-0.112 0.724-0.247 1.522-0.282 0.865-0.038 1.125-0.048 3.313-0.048 2.191 0 2.451 0.010 3.313 0.048 0.801 0.035 1.233 0.17 1.522 0.282 0.355 0.131 0.679 0.34 0.942 0.612 0.272 0.266 0.481 0.586 0.612 0.942 0.112 0.288 0.247 0.724 0.282 1.522 0.038 0.865 0.048 1.125 0.048 3.313s-0.010 2.444-0.048 3.309z"></path>
<path fill="#f4f4fd" style="fill: var(--color2, #f4f4fd)" d="M20.53 16.288c-2.326 0-4.213 1.887-4.213 4.213s1.887 4.213 4.213 4.213c2.326 0 4.213-1.887 4.213-4.213s-1.887-4.213-4.213-4.213zM20.53 23.234c-1.509 0-2.733-1.224-2.733-2.733s1.224-2.733 2.733-2.733c1.509 0 2.733 1.224 2.733 2.733s-1.224 2.733-2.733 2.733z"></path>
<path fill="#f4f4fd" style="fill: var(--color2, #f4f4fd)" d="M25.894 16.122c0 0.543-0.44 0.983-0.984 0.983s-0.984-0.44-0.984-0.983c0-0.543 0.44-0.983 0.984-0.983s0.984 0.44 0.984 0.983z"></path>
</symbol>
<symbol id="icon-twiter" viewBox="0 0 41 41">
<path fill="#4d5ae5" style="fill: var(--color1, #4d5ae5)" d="M41 20.5c0 5.661-2.295 10.786-6.004 14.496s-8.835 6.004-14.496 6.004c-5.661 0-10.786-2.295-14.496-6.004s-6.004-8.835-6.004-14.496c0-5.661 2.295-10.786 6.004-14.496s8.835-6.004 14.496-6.004c5.661 0 10.786 2.295 14.496 6.004s6.004 8.835 6.004 14.496z"></path>
<path fill="#f4f4fd" style="fill: var(--color2, #f4f4fd)" d="M28.7 15.415c-0.61 0.268-1.26 0.445-1.937 0.531 0.697-0.416 1.229-1.070 1.479-1.858-0.65 0.387-1.367 0.661-2.132 0.814-0.617-0.657-1.497-1.064-2.456-1.064-1.861 0-3.36 1.511-3.36 3.363 0 0.267 0.023 0.523 0.078 0.767-2.795-0.136-5.269-1.476-6.93-3.517-0.29 0.503-0.46 1.079-0.46 1.699 0 1.164 0.6 2.197 1.493 2.794-0.54-0.010-1.070-0.167-1.519-0.414 0 0.010 0 0.024 0 0.037 0 1.634 1.165 2.991 2.694 3.304-0.274 0.075-0.572 0.111-0.882 0.111-0.215 0-0.433-0.012-0.637-0.057 0.436 1.331 1.672 2.31 3.142 2.342-1.144 0.895-2.596 1.434-4.169 1.434-0.276 0-0.54-0.012-0.805-0.046 1.489 0.96 3.254 1.509 5.158 1.509 6.187 0 9.569-5.125 9.569-9.567 0-0.149-0.005-0.292-0.012-0.435 0.667-0.474 1.228-1.065 1.685-1.746z"></path>
</symbol>
<symbol id="icon-facebook" viewBox="0 0 41 41">
<path fill="#4d5ae5" style="fill: var(--color1, #4d5ae5)" d="M41 20.5c0 5.661-2.295 10.786-6.004 14.496s-8.835 6.004-14.496 6.004c-5.661 0-10.786-2.295-14.496-6.004s-6.004-8.835-6.004-14.496c0-5.661 2.295-10.786 6.004-14.496s8.835-6.004 14.496-6.004c5.661 0 10.786 2.295 14.496 6.004s6.004 8.835 6.004 14.496z"></path>
<path fill="#f4f4fd" style="fill: var(--color2, #f4f4fd)" d="M23.231 15.023h1.497v-2.608c-0.258-0.035-1.147-0.115-2.181-0.115-2.159 0-3.637 1.358-3.637 3.853v2.297h-2.382v2.915h2.382v7.335h2.921v-7.334h2.286l0.363-2.915h-2.649v-2.008c0.001-0.843 0.228-1.419 1.401-1.419z"></path>
</symbol>
</defs>
</svg>
