<svg aria-hidden="true" style="position: absolute; width: 0; height: 0; overflow: hidden;" version="1.1" xmlns="http://www.w3.org/2000/svg" xmlns:xlink="http://www.w3.org/1999/xlink">
<defs>
<symbol id="icon-linkedin-1" viewBox="0 0 41 41">
<path fill="#f4f4fd" style="fill: var(--color1, #f4f4fd)" d="M40.99 41v-0.002h0.010v-15.037c0-7.356-1.584-13.023-10.183-13.023-4.134 0-6.909 2.269-8.041 4.419h-0.12v-3.733h-8.154v27.373h8.49v-13.554c0-3.569 0.677-7.020 5.096-7.020 4.354 0 4.42 4.073 4.42 7.248v13.327h8.482z"></path>
<path fill="#f4f4fd" style="fill: var(--color1, #f4f4fd)" d="M0.677 13.627h8.501v27.373h-8.501v-27.373z"></path>
<path fill="#f4f4fd" style="fill: var(--color1, #f4f4fd)" d="M4.923-0c-2.718 0-4.923 2.205-4.923 4.923s2.205 4.97 4.923 4.97c2.718 0 4.923-2.252 4.923-4.97-0.002-2.718-2.207-4.923-4.923-4.923v0z"></path>
</symbol>
<symbol id="icon-instagram-2" viewBox="0 0 41 41">
<path fill="#f4f4fd" style="fill: var(--color1, #f4f4fd)" d="M40.96 12.054c-0.096-2.178-0.448-3.676-0.953-4.974-0.521-1.378-1.321-2.611-2.371-3.636-1.025-1.041-2.267-1.85-3.628-2.363-1.305-0.505-2.795-0.857-4.974-0.953-2.195-0.104-2.892-0.128-8.458-0.128s-6.263 0.024-8.45 0.12c-2.179 0.096-3.676 0.449-4.974 0.953-1.378 0.521-2.611 1.322-3.636 2.371-1.041 1.025-1.85 2.267-2.363 3.628-0.505 1.306-0.857 2.795-0.953 4.974-0.104 2.195-0.128 2.892-0.128 8.458s0.024 6.263 0.12 8.45c0.096 2.179 0.449 3.676 0.953 4.974 0.521 1.378 1.329 2.611 2.371 3.636 1.025 1.041 2.267 1.85 3.628 2.363 1.306 0.505 2.795 0.857 4.974 0.953 2.186 0.096 2.883 0.12 8.45 0.12s6.263-0.024 8.45-0.12c2.178-0.096 3.676-0.448 4.974-0.953 2.755-1.065 4.934-3.244 5.999-5.999 0.504-1.306 0.857-2.795 0.953-4.974 0.096-2.187 0.12-2.883 0.12-8.45s-0.008-6.263-0.104-8.45zM37.268 28.794c-0.088 2.002-0.425 3.084-0.705 3.805-0.689 1.786-2.107 3.204-3.893 3.893-0.721 0.28-1.81 0.617-3.805 0.704-2.163 0.096-2.811 0.12-8.281 0.12s-6.127-0.024-8.282-0.12c-2.002-0.088-3.084-0.424-3.804-0.704-0.889-0.329-1.698-0.849-2.355-1.53-0.681-0.665-1.201-1.466-1.53-2.355-0.28-0.721-0.617-1.81-0.705-3.804-0.096-2.163-0.12-2.812-0.12-8.282s0.024-6.127 0.12-8.282c0.088-2.002 0.424-3.084 0.705-3.804 0.329-0.889 0.849-1.698 1.538-2.355 0.664-0.681 1.465-1.201 2.355-1.53 0.721-0.28 1.81-0.617 3.804-0.705 2.163-0.096 2.811-0.12 8.282-0.12 5.478 0 6.127 0.024 8.282 0.12 2.002 0.088 3.084 0.425 3.805 0.705 0.889 0.328 1.698 0.849 2.355 1.53 0.681 0.665 1.201 1.466 1.53 2.355 0.28 0.721 0.617 1.81 0.705 3.804 0.096 2.163 0.12 2.811 0.12 8.282s-0.024 6.111-0.12 8.274z"></path>
<path fill="#f4f4fd" style="fill: var(--color1, #f4f4fd)" d="M20.576 9.971c-5.815 0-10.532 4.717-10.532 10.532s4.718 10.532 10.532 10.532c5.815 0 10.532-4.718 10.532-10.532s-4.717-10.532-10.532-10.532zM20.576 27.336c-3.772 0-6.832-3.059-6.832-6.832s3.060-6.832 6.832-6.832c3.773 0 6.832 3.060 6.832 6.832s-3.059 6.832-6.832 6.832z"></path>
<path fill="#f4f4fd" style="fill: var(--color1, #f4f4fd)" d="M33.984 9.555c0 1.358-1.101 2.459-2.459 2.459s-2.459-1.101-2.459-2.459c0-1.358 1.101-2.459 2.459-2.459s2.459 1.101 2.459 2.459z"></path>
</symbol>
<symbol id="icon-twitter-1" viewBox="0 0 41 41">
<path fill="#f4f4fd" style="fill: var(--color1, #f4f4fd)" d="M41 7.787c-1.525 0.669-3.149 1.112-4.843 1.327 1.742-1.040 3.072-2.675 3.698-4.646-1.625 0.969-3.418 1.653-5.33 2.035-1.543-1.643-3.741-2.66-6.14-2.66-4.654 0-8.4 3.777-8.4 8.408 0 0.666 0.056 1.307 0.195 1.917-6.988-0.341-13.171-3.69-17.325-8.792-0.725 1.258-1.151 2.698-1.151 4.249 0 2.911 1.499 5.491 3.734 6.985-1.35-0.026-2.675-0.418-3.798-1.035 0 0.026 0 0.059 0 0.092 0 4.085 2.914 7.477 6.734 8.259-0.684 0.187-1.43 0.277-2.204 0.277-0.538 0-1.081-0.031-1.591-0.143 1.089 3.329 4.179 5.776 7.854 5.855-2.86 2.237-6.491 3.585-10.422 3.585-0.689 0-1.35-0.031-2.012-0.115 3.723 2.401 8.136 3.772 12.894 3.772 15.467 0 23.924-12.812 23.924-23.918 0-0.372-0.013-0.73-0.031-1.087 1.668-1.184 3.070-2.662 4.213-4.364z"></path>
</symbol>
<symbol id="icon-facebook-1" viewBox="0 0 41 41">
<path fill="#f4f4fd" style="fill: var(--color1, #f4f4fd)" d="M27.328 6.808h3.743v-6.519c-0.646-0.089-2.867-0.289-5.453-0.289-5.397 0-9.093 3.394-9.093 9.633v5.742h-5.955v7.288h5.955v18.337h7.301v-18.335h5.714l0.907-7.288h-6.623v-5.021c0.002-2.106 0.569-3.548 3.504-3.548z"></path>
</symbol>
</defs>
</svg>
