<svg width="15" height="15" viewBox="0 0 15 15" fill="none" xmlns="http://www.w3.org/2000/svg">
<path d="M14.9481 6.04812C14.8222 5.66299 14.4894 5.38149 14.0873 5.32274L10.2665 4.76698L8.55661 1.30455C8.19823 0.574915 7.00246 0.574915 6.64408 1.30455L4.93418 4.76698L1.11325 5.32286C0.711116 5.38149 0.378362 5.66212 0.25136 6.04825C0.126608 6.43438 0.229985 6.85889 0.521239 7.14164L3.28715 9.83718L2.63439 13.6431C2.56614 14.0431 2.7304 14.4474 3.0579 14.6864C3.38966 14.9275 3.82266 14.9573 4.18217 14.7674L7.59984 12.97L11.0175 14.7674C11.1733 14.8495 11.345 14.89 11.5146 14.89C11.7354 14.89 11.9563 14.8218 12.1419 14.6863C12.4704 14.4474 12.6347 14.043 12.5654 13.643L11.9127 9.83706L14.6786 7.14151C14.9683 6.85776 15.073 6.43425 14.9481 6.04812ZM10.0223 8.70204C9.77162 8.94629 9.65637 9.30042 9.71612 9.64605L10.098 11.8743L8.09698 10.8226C7.94122 10.7404 7.77059 10.6999 7.59984 10.6999C7.42921 10.6999 7.25959 10.7404 7.10271 10.8226L5.10156 11.8743L5.48344 9.64605C5.54319 9.30042 5.42793 8.94742 5.17731 8.70204L3.55703 7.12339L5.79494 6.79801C6.1427 6.74788 6.44245 6.52926 6.5982 6.2145L7.59872 4.18785L8.59923 6.2145C8.75498 6.52913 9.05474 6.74788 9.4025 6.79801L11.6404 7.12339L10.0223 8.70204Z" fill="#4D5AE5"/>
</svg>
